/vscmnt/brussel_pixiu_data/_data_brussel/112/vsc11236/PredSimResults/SUBJ11mtu3D/SUBJ11mtu3D_12829363.mot
version=1
nRows=11
nColumns=50
inDegrees=yes
endheader
                time	         pelvis_tilt	         pelvis_list	     pelvis_rotation	           pelvis_tx	           pelvis_ty	           pelvis_tz	       hip_flexion_r	     hip_adduction_r	      hip_rotation_r	        knee_angle_r	       ankle_angle_r	         mtp_angle_r	       hip_flexion_l	     hip_adduction_l	      hip_rotation_l	        knee_angle_l	       ankle_angle_l	         mtp_angle_l	    lumbar_extension	      lumbar_bending	     lumbar_rotation	 ercspn_r/activation	 intobl_r/activation	 extobl_r/activation	    abd_r/activation	    add_r/activation	hamstrings_r/activation	bifemsh_r/activation	glut_max_r/activation	iliopsoas_r/activation	rect_fem_r/activation	  vasti_r/activation	gastroc_r/activation	 soleus_r/activation	tib_ant_r/activation	 ercspn_l/activation	 intobl_l/activation	 extobl_l/activation	    abd_l/activation	    add_l/activation	hamstrings_l/activation	bifemsh_l/activation	glut_max_l/activation	iliopsoas_l/activation	rect_fem_l/activation	  vasti_l/activation	gastroc_l/activation	 soleus_l/activation	tib_ant_l/activation	
          0.00000000	         -6.17621391	         -4.64578526	          7.92847040	          0.00000000	          0.93686462	         -0.01610059	         31.87894597	          1.13333834	         -4.08393845	         -5.09761778	          5.20952152	          0.23430033	        -13.03632324	         -5.37069031	          3.08830737	         -9.21212132	         11.26458806	         30.17349123	         -4.32877414	          3.47712637	         -2.67873558	          0.08124939	          0.11444837	          0.02150071	          0.01463082	          0.11676177	          0.03798380	          0.22149932	          0.05648342	          0.07263474	          0.01000002	          0.00999999	          0.02017259	          0.00999999	          0.29248209	          0.06502264	          0.00999999	          0.01000000	          0.03921967	          0.01997173	          0.01831694	          0.10598087	          0.03478666	          0.40703735	          0.01000005	          0.01666274	          0.29268448	          0.23894663	          0.00999999	
          0.01385617	         -6.27896986	         -4.52160445	          7.90323668	          0.01889015	          0.93506334	         -0.01532765	         31.61997603	          1.20498286	         -4.13277661	         -6.39252956	          4.80316948	          0.18929454	        -13.03409990	         -5.31412404	          2.67960828	        -11.07837614	         10.48646689	         32.36849201	         -4.00255611	          3.78660441	         -2.89835805	          0.06622087	          0.10256491	          0.01746696	          0.04943155	          0.09485608	          0.05156608	          0.17994381	          0.07900098	          0.05900773	          0.01000000	          0.00999999	          0.01638801	          0.01230936	          0.32404119	          0.08144609	          0.00999999	          0.01000000	          0.03186166	          0.01881649	          0.01488052	          0.08609779	          0.02826033	          0.38420721	          0.01059500	          0.02295840	          0.24006584	          0.20799777	          0.00999999	
          0.02771233	         -6.35845773	         -4.39645480	          7.82832932	          0.03791054	          0.93374925	         -0.01444648	         31.23742428	          1.27693916	         -4.19158660	         -7.50159273	          4.18972455	          0.18209114	        -12.81656799	         -5.25273091	          2.24953149	        -13.35049504	          9.53203306	         34.55383707	         -3.69086818	          4.10383835	         -3.08897540	          0.07713550	          0.08332269	          0.01418998	          0.11254618	          0.11604095	          0.04720450	          0.14618453	          0.10454183	          0.04793728	          0.01000000	          0.00999999	          0.01331346	          0.01000000	          0.36724879	          0.11462969	          0.00999999	          0.01000000	          0.02588409	          0.01985070	          0.01907720	          0.06994497	          0.02295840	          0.36302001	          0.01230953	          0.01865117	          0.19502706	          0.16897528	          0.00999999	
          0.04156850	         -6.41378010	         -4.26930954	          7.70773444	          0.05675580	          0.93312956	         -0.01347280	         30.84337237	          1.35781865	         -4.25341110	         -8.59966872	          3.55164445	          0.13893838	        -12.27970205	         -5.18322626	          1.80436442	        -16.16806685	          8.39334972	         36.60620494	         -3.42120382	          4.42821473	         -3.24671061	          0.08254680	          0.06769051	          0.01152780	          0.14544267	          0.14179664	          0.04452934	          0.11875883	          0.12154279	          0.03894376	          0.01000000	          0.04341503	          0.01081572	          0.01000000	          0.40085065	          0.14603844	          0.00999999	          0.01000000	          0.02102797	          0.04634189	          0.01549817	          0.05682259	          0.01865117	          0.33425206	          0.01000014	          0.01515202	          0.15843801	          0.13727381	          0.00999999	
          0.05542466	         -6.44399692	         -4.13379893	          7.54364259	          0.07530318	          0.93328469	         -0.01243894	         30.41609915	          1.44258781	         -4.30852264	         -9.70262376	          3.14957055	          0.10135724	        -11.37595557	         -5.10138690	          1.34007776	        -19.58342888	          7.06727835	         38.30390922	         -3.19804399	          4.75255264	         -3.36756521	          0.07960007	          0.05499109	          0.00999999	          0.15315544	          0.12695135	          0.04617104	          0.09647847	          0.11796673	          0.03163752	          0.01000000	          0.08488484	          0.01000000	          0.01000000	          0.41657319	          0.15417509	          0.00999999	          0.01000000	          0.01708291	          0.06042672	          0.01865115	          0.04616210	          0.01515202	          0.28949617	          0.00999999	          0.01230935	          0.12871343	          0.11151985	          0.00999999	
          0.06928083	         -6.45089039	         -3.97799286	          7.33865924	          0.09348018	          0.93422051	         -0.01137988	         29.90613949	          1.52030143	         -4.33920237	        -10.70613426	          2.93559711	          0.07268925	        -10.11099874	         -5.00436092	          0.84622432	        -23.55948975	          5.62667357	         39.22498236	         -3.02373765	          5.06408810	         -3.44987103	          0.06750855	          0.04467420	          0.00999999	          0.14870453	          0.10313399	          0.04460594	          0.07837814	          0.11642583	          0.02570200	          0.01000000	          0.13036134	          0.01000002	          0.01000001	          0.41283258	          0.16302642	          0.00999999	          0.01000000	          0.01387799	          0.07000512	          0.01515201	          0.03750166	          0.01230935	          0.24055186	          0.00999999	          0.00999999	          0.10456549	          0.09059760	          0.00999999	
          0.08313699	         -6.43773396	         -3.79182994	          7.09357925	          0.11124222	          0.93596195	         -0.01032725	         29.25899359	          1.58549449	         -4.31935616	        -11.49650976	          2.86794388	          0.05077634	         -8.51272229	         -4.89351280	          0.32810139	        -28.00643474	          4.05187122	         39.13987104	         -2.89931582	          5.35150465	         -3.49220363	          0.05484328	          0.03629287	          0.00999999	          0.13604869	          0.08378501	          0.04215623	          0.06367361	          0.11303029	          0.02088004	          0.01000000	          0.16420897	          0.01045560	          0.01034763	          0.40276864	          0.16831574	          0.00999999	          0.01000005	          0.01127433	          0.08094697	          0.01230934	          0.06403815	          0.00999999	          0.19542190	          0.00999999	          0.00999999	          0.08494794	          0.07360057	          0.01130890	
          0.09699316	         -6.40775904	         -3.56286238	          6.80639242	          0.12859079	          0.93846052	         -0.00930352	         28.42792934	          1.62693852	         -4.24109739	        -11.98196666	          2.90657421	          0.03875940	         -6.63810535	         -4.76276163	         -0.20153684	        -32.76080796	          2.28625975	         37.97402603	         -2.82214491	          5.59936866	         -3.49321812	          0.04455413	          0.02948396	          0.00999999	          0.11755855	          0.06806609	          0.04092634	          0.05172779	          0.10481159	          0.01696274	          0.01000000	          0.18496050	          0.01000000	          0.01000000	          0.38727143	          0.17179308	          0.00999999	          0.02904152	          0.00999999	          0.09591651	          0.01000000	          0.07575944	          0.00999999	          0.15875877	          0.00999999	          0.00999999	          0.06901085	          0.05979236	          0.04463189	
          0.11084932	         -6.36325513	         -3.27627749	          6.47526169	          0.14552572	          0.94154428	         -0.00831385	         27.41310045	          1.62641188	         -4.09901194	        -12.15207793	          3.00586296	          0.03654504	         -4.56860280	         -4.59730747	         -0.73589673	        -37.67443534	          0.56942397	         35.36800481	         -2.79283229	          5.78640737	         -3.45716833	          0.03619533	          0.02395247	          0.00999999	          0.10936980	          0.05529620	          0.03786239	          0.04202314	          0.08623863	          0.01378035	          0.01000000	          0.18363191	          0.01000000	          0.01000000	          0.36876466	          0.17731770	          0.00999999	          0.05956584	          0.00999999	          0.09637773	          0.00999999	          0.07411293	          0.00999999	          0.12897402	          0.00999999	          0.00999999	          0.05606371	          0.04857470	          0.10407778	
          0.12470549	         -6.30507913	         -2.93050232	          6.10408469	          0.16204250	          0.94497886	         -0.00734613	         26.27822483	          1.57741447	         -3.86578686	        -12.11158226	          3.15343143	          0.04232024	         -2.41913005	         -4.38772382	         -1.25180228	        -42.55430702	         -0.76921432	         31.22668277	         -2.81219269	          5.90218379	         -3.39663667	          0.02940472	          0.01945874	          0.00999999	          0.10568121	          0.04492208	          0.03177757	          0.03413917	          0.07005940	          0.01119502	          0.01000000	          0.16709995	          0.00999999	          0.01000000	          0.34895625	          0.18804403	          0.01990327	          0.08605423	          0.00999999	          0.07829629	          0.01000000	          0.06255889	          0.00999999	          0.10477719	          0.01000000	          0.00999999	          0.04554559	          0.03946160	          0.18953508	
          0.13856165	         -6.23307961	         -2.54342429	          5.69993189	          0.17816564	          0.94853473	         -0.00639318	         25.10175997	          1.48869088	         -3.54203298	        -11.99013290	          3.33319208	          0.05488052	         -0.32856858	         -4.11430414	         -1.71268327	        -47.13331892	         -1.22906173	         26.27260104	         -2.87510859	          5.95710618	         -3.32275852	          0.02388810	          0.01580809	          0.00999999	          0.09505820	          0.03649424	          0.03143661	          0.02773432	          0.06098245	          0.00999999	          0.01000000	          0.15485237	          0.00999999	          0.00999999	          0.32889571	          0.18993546	          0.03512643	          0.09146494	          0.00999999	          0.06360711	          0.00999999	          0.09340037	          0.00999999	          0.10090862	          0.01000000	          0.00999999	          0.04390215	          0.03205820	          0.21084362	
